<svg xmlns="http://www.w3.org/2000/svg" xmlns:xlink="http://www.w3.org/1999/xlink" id="processonSvg1000" viewBox="10.0 9.0 896.5 646.0" width="896.5" height="646.0"><defs id="ProcessOnDefs1001"><marker id="ProcessOnMarker1024" markerUnits="userSpaceOnUse" orient="auto" markerWidth="16.23606797749979" markerHeight="10.550836550532098" viewBox="-1.0 -1.3763819204711736 16.23606797749979 10.550836550532098" refX="-1.0" refY="3.8990363547948754"><path id="ProcessOnPath1025" d="M12.0 3.8990363547948754L0.0 7.798072709589751V0.0Z" stroke="#323232" stroke-width="2.0" fill="#323232" transform="matrix(1.0,0.0,0.0,1.0,0.0,0.0)"/></marker><marker id="ProcessOnMarker1033" markerUnits="userSpaceOnUse" orient="auto" markerWidth="16.23606797749979" markerHeight="10.550836550532098" viewBox="-1.0 -1.3763819204711736 16.23606797749979 10.550836550532098" refX="-1.0" refY="3.8990363547948754"><path id="ProcessOnPath1034" d="M12.0 3.8990363547948754L0.0 7.798072709589751V0.0Z" stroke="#323232" stroke-width="2.0" fill="#323232" transform="matrix(1.0,0.0,0.0,1.0,0.0,0.0)"/></marker><marker id="ProcessOnMarker1040" markerUnits="userSpaceOnUse" orient="auto" markerWidth="16.23606797749979" markerHeight="10.550836550532098" viewBox="-1.0 -1.3763819204711736 16.23606797749979 10.550836550532098" refX="-1.0" refY="3.8990363547948754"><path id="ProcessOnPath1041" d="M12.0 3.8990363547948754L0.0 7.798072709589751V0.0Z" stroke="#323232" stroke-width="2.0" fill="#323232" transform="matrix(1.0,0.0,0.0,1.0,0.0,0.0)"/></marker><marker id="ProcessOnMarker1048" markerUnits="userSpaceOnUse" orient="auto" markerWidth="16.23606797749979" markerHeight="10.550836550532098" viewBox="-1.0 -1.3763819204711736 16.23606797749979 10.550836550532098" refX="-1.0" refY="3.8990363547948754"><path id="ProcessOnPath1049" d="M12.0 3.8990363547948754L0.0 7.798072709589751V0.0Z" stroke="#323232" stroke-width="2.0" fill="#323232" transform="matrix(1.0,0.0,0.0,1.0,0.0,0.0)"/></marker><marker id="ProcessOnMarker1055" markerUnits="userSpaceOnUse" orient="auto" markerWidth="16.23606797749979" markerHeight="10.550836550532098" viewBox="-1.0 -1.3763819204711736 16.23606797749979 10.550836550532098" refX="-1.0" refY="3.8990363547948754"><path id="ProcessOnPath1056" d="M12.0 3.8990363547948754L0.0 7.798072709589751V0.0Z" stroke="#323232" stroke-width="2.0" fill="#323232" transform="matrix(1.0,0.0,0.0,1.0,0.0,0.0)"/></marker><marker id="ProcessOnMarker1081" markerUnits="userSpaceOnUse" orient="auto" markerWidth="16.23606797749979" markerHeight="10.550836550532098" viewBox="-1.0 -1.3763819204711736 16.23606797749979 10.550836550532098" refX="-1.0" refY="3.8990363547948754"><path id="ProcessOnPath1082" d="M12.0 3.8990363547948754L0.0 7.798072709589751V0.0Z" stroke="#323232" stroke-width="2.0" fill="#323232" transform="matrix(1.0,0.0,0.0,1.0,0.0,0.0)"/></marker><marker id="ProcessOnMarker1104" markerUnits="userSpaceOnUse" orient="auto" markerWidth="16.23606797749979" markerHeight="10.550836550532098" viewBox="-1.0 -1.3763819204711736 16.23606797749979 10.550836550532098" refX="-1.0" refY="3.8990363547948754"><path id="ProcessOnPath1105" d="M12.0 3.8990363547948754L0.0 7.798072709589751V0.0Z" stroke="#323232" stroke-width="2.0" fill="#323232" transform="matrix(1.0,0.0,0.0,1.0,0.0,0.0)"/></marker><marker id="ProcessOnMarker1117" markerUnits="userSpaceOnUse" orient="auto" markerWidth="16.23606797749979" markerHeight="10.550836550532098" viewBox="-1.0 -1.3763819204711736 16.23606797749979 10.550836550532098" refX="-1.0" refY="3.8990363547948754"><path id="ProcessOnPath1118" d="M12.0 3.8990363547948754L0.0 7.798072709589751V0.0Z" stroke="#323232" stroke-width="2.0" fill="#323232" transform="matrix(1.0,0.0,0.0,1.0,0.0,0.0)"/></marker><marker id="ProcessOnMarker1138" markerUnits="userSpaceOnUse" orient="auto" markerWidth="16.23606797749979" markerHeight="10.550836550532098" viewBox="-1.0 -1.3763819204711736 16.23606797749979 10.550836550532098" refX="-1.0" refY="3.8990363547948754"><path id="ProcessOnPath1139" d="M12.0 3.8990363547948754L0.0 7.798072709589751V0.0Z" stroke="#66b2ff" stroke-width="2.0" fill="#66b2ff" transform="matrix(1.0,0.0,0.0,1.0,0.0,0.0)"/></marker><marker id="ProcessOnMarker1159" markerUnits="userSpaceOnUse" orient="auto" markerWidth="16.23606797749979" markerHeight="10.550836550532098" viewBox="-1.0 -1.3763819204711736 16.23606797749979 10.550836550532098" refX="-1.0" refY="3.8990363547948754"><path id="ProcessOnPath1160" d="M12.0 3.8990363547948754L0.0 7.798072709589751V0.0Z" stroke="#66b2ff" stroke-width="2.0" fill="#66b2ff" transform="matrix(1.0,0.0,0.0,1.0,0.0,0.0)"/></marker></defs><g id="ProcessOnG1002"><path id="ProcessOnPath1003" d="M10.0 9.0H906.5V655.0H10.0V9.0Z" fill="none"/><g id="ProcessOnG1004"><g id="ProcessOnG1005" transform="matrix(1.0,0.0,0.0,1.0,30.0,35.0)" opacity="1.0"><path id="ProcessOnPath1006" d="M35.0 30.0L35.0 600.0" stroke="#323232" stroke-width="2.0" stroke-dasharray="2.0 3.0" opacity="1.0" fill="none"/><path id="ProcessOnPath1007" d="M0.0 0.0L70.0 0.0L70.0 30.0L0.0 30.0Z" stroke="#323232" stroke-width="2.0" stroke-dasharray="none" opacity="1.0" fill="#ffffff"/><g id="ProcessOnG1008" transform="matrix(1.0,0.0,0.0,1.0,10.0,6.875)"><text id="ProcessOnText1009" fill="#000000" font-size="13" x="24.0" y="13.325" font-family="微软雅黑" font-weight="normal" font-style="normal" text-decoration="none" family="微软雅黑" text-anchor="middle" size="13">Device</text></g></g><g id="ProcessOnG1010" transform="matrix(1.0,0.0,0.0,1.0,440.0,35.0)" opacity="1.0"><path id="ProcessOnPath1011" d="M35.0 30.0L35.0 600.0" stroke="#323232" stroke-width="2.0" stroke-dasharray="2.0 3.0" opacity="1.0" fill="none"/><path id="ProcessOnPath1012" d="M0.0 0.0L70.0 0.0L70.0 30.0L0.0 30.0Z" stroke="#323232" stroke-width="2.0" stroke-dasharray="none" opacity="1.0" fill="#ffffff"/><g id="ProcessOnG1013" transform="matrix(1.0,0.0,0.0,1.0,10.0,6.875)"><text id="ProcessOnText1014" fill="#000000" font-size="13" x="24.0" y="13.325" font-family="微软雅黑" font-weight="normal" font-style="normal" text-decoration="none" family="微软雅黑" text-anchor="middle" size="13">Server</text></g></g><g id="ProcessOnG1015" transform="matrix(1.0,0.0,0.0,1.0,765.5,35.0)" opacity="1.0"><path id="ProcessOnPath1016" d="M60.5 30.0L60.5 600.0" stroke="#323232" stroke-width="2.0" stroke-dasharray="2.0 3.0" opacity="1.0" fill="none"/><path id="ProcessOnPath1017" d="M0.0 0.0L121.0 0.0L121.0 30.0L0.0 30.0Z" stroke="#323232" stroke-width="2.0" stroke-dasharray="none" opacity="1.0" fill="#ffffff"/><g id="ProcessOnG1018" transform="matrix(1.0,0.0,0.0,1.0,10.0,6.875)"><text id="ProcessOnText1019" fill="#000000" font-size="13" x="49.5" y="13.325" font-family="微软雅黑" font-weight="normal" font-style="normal" text-decoration="none" family="微软雅黑" text-anchor="middle" size="13">Console or APP</text></g></g><g id="ProcessOnG1020" transform="matrix(1.0,0.0,0.0,1.0,50.0,98.0)" opacity="1.0"><path id="ProcessOnPath1021" d="M0.0 4.0Q0.0 0.0 4.0 0.0L26.0 0.0Q30.0 0.0 30.0 4.0L30.0 526.0Q30.0 530.0 26.0 530.0L4.0 530.0Q0.0 530.0 0.0 526.0L0.0 4.0Z" stroke="#323232" stroke-width="2.0" stroke-dasharray="none" opacity="1.0" fill="#ffffff"/></g><g id="ProcessOnG1022"><path id="ProcessOnPath1023" d="M80.0 110.38821138211384L270.0 110.38821138211384L270.0 113.01698754246884L444.7639320225002 113.01698754246884" stroke="#323232" stroke-width="2.0" stroke-dasharray="none" fill="none" marker-end="url(#ProcessOnMarker1024)"/><g id="ProcessOnG1026" transform="matrix(1.0,0.0,0.0,1.0,263.6963540914276,102.26321138211384)"><path id="ProcessOnPath1027" d="M0 0H42.0V16.25H0Z" fill="#fff" transform="matrix(1.0,0.0,0.0,1.0,-21.0,0.0)"/><text id="ProcessOnText1028" fill="#000000" font-size="13" x="0.0" y="13.325" font-family="微软雅黑" font-weight="normal" font-style="normal" text-decoration="none" family="微软雅黑" text-anchor="middle" size="13">CONN</text></g></g><g id="ProcessOnG1029" transform="matrix(1.0,0.0,0.0,1.0,460.0,102.0)" opacity="1.0"><path id="ProcessOnPath1030" d="M0.0 4.0Q0.0 0.0 4.0 0.0L26.0 0.0Q30.0 0.0 30.0 4.0L30.0 508.0Q30.0 512.0 26.0 512.0L4.0 512.0Q0.0 512.0 0.0 508.0L0.0 4.0Z" stroke="#323232" stroke-width="2.0" stroke-dasharray="none" opacity="1.0" fill="#ffffff"/></g><g id="ProcessOnG1031"><path id="ProcessOnPath1032" d="M460.0 128.0L270.0 128.0L270.0 129.0L95.23606797749979 129.0" stroke="#323232" stroke-width="2.0" stroke-dasharray="none" fill="none" marker-end="url(#ProcessOnMarker1033)"/><g id="ProcessOnG1035" transform="matrix(1.0,0.0,0.0,1.0,277.11803398874986,119.875)"><path id="ProcessOnPath1036" d="M0 0H68.0V16.25H0Z" fill="#fff" transform="matrix(1.0,0.0,0.0,1.0,-34.0,0.0)"/><text id="ProcessOnText1037" fill="#000000" font-size="13" x="0.0" y="13.325" font-family="微软雅黑" font-weight="normal" font-style="normal" text-decoration="none" family="微软雅黑" text-anchor="middle" size="13">CONNACK</text></g></g><g id="ProcessOnG1038"><path id="ProcessOnPath1039" d="M80.0 197.0L270.0 197.0L270.0 198.0L444.7639320225002 198.0" stroke="#323232" stroke-width="2.0" stroke-dasharray="none" fill="none" marker-end="url(#ProcessOnMarker1040)"/><g id="ProcessOnG1042" transform="matrix(1.0,0.0,0.0,1.0,262.88196601125014,180.75)"><path id="ProcessOnPath1043" d="M0 0H268.0V32.5H0Z" fill="#fff" transform="matrix(1.0,0.0,0.0,1.0,-134.0,0.0)"/><text id="ProcessOnText1044" fill="#000000" font-size="13" x="0.0" y="13.325" font-family="微软雅黑" font-weight="normal" font-style="normal" text-decoration="none" family="微软雅黑" text-anchor="middle" size="13">SUBSCRIBE</text><text id="ProcessOnText1045" fill="#000000" font-size="13" x="0.0" y="29.575" font-family="微软雅黑" font-weight="normal" font-style="normal" text-decoration="none" family="微软雅黑" text-anchor="middle" size="13">/shadow/get/${product_id}/${device_name}</text></g></g><g id="ProcessOnG1046"><path id="ProcessOnPath1047" d="M460.0 231.0L270.0 231.0L270.0 226.0L95.23606797749979 226.0" stroke="#323232" stroke-width="2.0" stroke-dasharray="none" fill="none" marker-end="url(#ProcessOnMarker1048)"/><g id="ProcessOnG1050" transform="matrix(1.0,0.0,0.0,1.0,275.11803398874986,222.875)"><path id="ProcessOnPath1051" d="M0 0H52.0V16.25H0Z" fill="#fff" transform="matrix(1.0,0.0,0.0,1.0,-26.0,0.0)"/><text id="ProcessOnText1052" fill="#000000" font-size="13" x="0.0" y="13.325" font-family="微软雅黑" font-weight="normal" font-style="normal" text-decoration="none" family="微软雅黑" text-anchor="middle" size="13">SUBACK</text></g></g><g id="ProcessOnG1053"><path id="ProcessOnPath1054" d="M476.0 374.0L278.0 374.0L278.0 374.0L95.23606797749979 374.0" stroke="#323232" stroke-width="2.0" stroke-dasharray="none" fill="none" marker-end="url(#ProcessOnMarker1055)"/><g id="ProcessOnG1057" transform="matrix(1.0,0.0,0.0,1.0,285.61803398874986,357.75)"><path id="ProcessOnPath1058" d="M0 0H268.0V32.5H0Z" fill="#fff" transform="matrix(1.0,0.0,0.0,1.0,-134.0,0.0)"/><text id="ProcessOnText1059" fill="#000000" font-size="13" x="0.0" y="13.325" font-family="微软雅黑" font-weight="normal" font-style="normal" text-decoration="none" family="微软雅黑" text-anchor="middle" size="13">PUBLISH</text><text id="ProcessOnText1060" fill="#000000" font-size="13" x="0.0" y="29.575" font-family="微软雅黑" font-weight="normal" font-style="normal" text-decoration="none" family="微软雅黑" text-anchor="middle" size="13">/shadow/get/${product_id}/${device_name}</text></g></g><g id="ProcessOnG1061" transform="matrix(1.0,0.0,0.0,1.0,126.5,393.0)" opacity="1.0"><path id="ProcessOnPath1062" d="M0.0 0.0L274.5 0.0L290.5 16.0L290.5 20.0L0.0 20.0L0.0 0.0Z" stroke="none" stroke-width="0.0" stroke-dasharray="none" opacity="1.0" fill="#ffffaa"/><path id="ProcessOnPath1063" d="M274.5 0.0L274.5 16.0L290.5 16.0Z" stroke="none" stroke-width="0.0" stroke-dasharray="none" opacity="1.0" fill="#cdcd78"/><path id="ProcessOnPath1064" d="M0.0 0.0L274.5 0.0L290.5 16.0L290.5 20.0L0.0 20.0L0.0 0.0Z" stroke="none" stroke-width="0.0" stroke-dasharray="none" opacity="1.0" fill="none"/><g id="ProcessOnG1065" transform="matrix(1.0,0.0,0.0,1.0,10.0,1.875)"><text id="ProcessOnText1066" fill="#000000" font-size="13" x="0.0" y="13.325" font-family="微软雅黑" font-weight="normal" font-style="normal" text-decoration="none" family="微软雅黑" text-anchor="start" size="13">{"method":"control", ... {"param_bool":true}}</text></g></g><g id="ProcessOnG1067" transform="matrix(1.0,0.0,0.0,1.0,71.0,156.0)" opacity="1.0"><path id="ProcessOnPath1068" d="M0.0 0.0L160.0 0.0L160.0 40.0L0.0 40.0Z" stroke="none" stroke-width="0.0" stroke-dasharray="none" opacity="1.0" fill="none"/><g id="ProcessOnG1069" transform="matrix(1.0,0.0,0.0,1.0,0.0,11.875)"><text id="ProcessOnText1070" fill="#3333ff" font-size="13" x="79.0" y="13.325" font-family="微软雅黑" font-weight="normal" font-style="normal" text-decoration="none" family="微软雅黑" text-anchor="middle" size="13">2. 订阅下行消息 Topic</text></g></g><g id="ProcessOnG1071" transform="matrix(1.0,0.0,0.0,1.0,59.0,72.0)" opacity="1.0"><path id="ProcessOnPath1072" d="M0.0 0.0L160.0 0.0L160.0 40.0L0.0 40.0Z" stroke="none" stroke-width="0.0" stroke-dasharray="none" opacity="1.0" fill="none"/><g id="ProcessOnG1073" transform="matrix(1.0,0.0,0.0,1.0,0.0,11.875)"><text id="ProcessOnText1074" fill="#3333ff" font-size="13" x="79.0" y="13.325" font-family="微软雅黑" font-weight="normal" font-style="normal" text-decoration="none" family="微软雅黑" text-anchor="middle" size="13">1. 连接 MQTT 服务</text></g></g><g id="ProcessOnG1075" transform="matrix(1.0,0.0,0.0,1.0,262.0,320.5)" opacity="1.0"><path id="ProcessOnPath1076" d="M0.0 0.0L206.0 0.0L206.0 29.0L0.0 29.0Z" stroke="none" stroke-width="0.0" stroke-dasharray="none" opacity="1.0" fill="none"/><g id="ProcessOnG1077" transform="matrix(1.0,0.0,0.0,1.0,0.0,6.375)"><text id="ProcessOnText1078" fill="#3333ff" font-size="13" x="102.0" y="13.325" font-family="微软雅黑" font-weight="normal" font-style="normal" text-decoration="none" family="微软雅黑" text-anchor="middle" size="13">3. 设备在线，直接下发指令</text></g></g><g id="ProcessOnG1079"><path id="ProcessOnPath1080" d="M80.0 427.7027027027027L278.0 427.7027027027027L278.0 427.7027027027027L460.7639320225002 427.7027027027027" stroke="#323232" stroke-width="2.0" stroke-dasharray="none" fill="none" marker-end="url(#ProcessOnMarker1081)"/><g id="ProcessOnG1083" transform="matrix(1.0,0.0,0.0,1.0,270.38196601125014,419.5777027027027)"><path id="ProcessOnPath1084" d="M0 0H52.0V16.25H0Z" fill="#fff" transform="matrix(1.0,0.0,0.0,1.0,-26.0,0.0)"/><text id="ProcessOnText1085" fill="#000000" font-size="13" x="0.0" y="13.325" font-family="微软雅黑" font-weight="normal" font-style="normal" text-decoration="none" family="微软雅黑" text-anchor="middle" size="13">PUBACK</text></g></g><g id="ProcessOnG1086" transform="matrix(1.0,0.0,0.0,1.0,186.0,29.0)" opacity="1.0"><path id="ProcessOnPath1087" d="M0.0 0.0L160.0 0.0L160.0 40.0L0.0 40.0Z" stroke="none" stroke-width="0.0" stroke-dasharray="none" opacity="1.0" fill="none"/><g id="ProcessOnG1088" transform="matrix(1.0,0.0,0.0,1.0,0.0,11.875)"><text id="ProcessOnText1089" fill="#000000" font-size="13" x="79.0" y="13.325" font-family="微软雅黑" font-weight="normal" font-style="normal" text-decoration="none" family="微软雅黑" text-anchor="middle" size="13">MQTT</text></g></g><g id="ProcessOnG1090" transform="matrix(1.0,0.0,0.0,1.0,577.0,29.0)" opacity="1.0"><path id="ProcessOnPath1091" d="M0.0 0.0L160.0 0.0L160.0 40.0L0.0 40.0Z" stroke="none" stroke-width="0.0" stroke-dasharray="none" opacity="1.0" fill="none"/><g id="ProcessOnG1092" transform="matrix(1.0,0.0,0.0,1.0,0.0,11.875)"><text id="ProcessOnText1093" fill="#000000" font-size="13" x="79.0" y="13.325" font-family="微软雅黑" font-weight="normal" font-style="normal" text-decoration="none" family="微软雅黑" text-anchor="middle" size="13">HTTP</text></g></g><g id="ProcessOnG1094" transform="matrix(1.0,0.0,0.0,1.0,718.0,208.0)" opacity="1.0"><path id="ProcessOnPath1095" d="M0.0 0.0L115.0 0.0L115.0 31.0L0.0 31.0Z" stroke="none" stroke-width="0.0" stroke-dasharray="none" opacity="1.0" fill="none"/><g id="ProcessOnG1096" transform="matrix(1.0,0.0,0.0,1.0,0.0,7.375)"><text id="ProcessOnText1097" fill="#3333ff" font-size="13" x="56.5" y="13.325" font-family="微软雅黑" font-weight="normal" font-style="normal" text-decoration="none" family="微软雅黑" text-anchor="middle" size="13">下发指令</text></g></g><g id="ProcessOnG1098" transform="matrix(1.0,0.0,0.0,1.0,476.0,221.0)" opacity="1.0"><path id="ProcessOnPath1099" d="M0.0 4.0Q0.0 0.0 4.0 0.0L26.0 0.0Q30.0 0.0 30.0 4.0L30.0 373.0Q30.0 377.0 26.0 377.0L4.0 377.0Q0.0 377.0 0.0 373.0L0.0 4.0Z" stroke="#323232" stroke-width="2.0" stroke-dasharray="none" opacity="1.0" fill="#ffffff"/></g><g id="ProcessOnG1100" transform="matrix(1.0,0.0,0.0,1.0,811.0,221.0)" opacity="1.0"><path id="ProcessOnPath1101" d="M0.0 4.0Q0.0 0.0 4.0 0.0L26.0 0.0Q30.0 0.0 30.0 4.0L30.0 218.0Q30.0 222.0 26.0 222.0L4.0 222.0Q0.0 222.0 0.0 218.0L0.0 4.0Z" stroke="#323232" stroke-width="2.0" stroke-dasharray="none" opacity="1.0" fill="#ffffff"/></g><g id="ProcessOnG1102"><path id="ProcessOnPath1103" d="M811.0 238.0L658.5 238.0L658.5 250.68503937007878L521.2360679774998 250.68503937007878" stroke="#323232" stroke-width="2.0" stroke-dasharray="none" fill="none" marker-end="url(#ProcessOnMarker1104)"/><g id="ProcessOnG1106" transform="matrix(1.0,0.0,0.0,1.0,659.7755143037105,229.875)"><path id="ProcessOnPath1107" d="M0 0H135.0V16.25H0Z" fill="#fff" transform="matrix(1.0,0.0,0.0,1.0,-67.5,0.0)"/><text id="ProcessOnText1108" fill="#000000" font-size="13" x="0.0" y="13.325" font-family="微软雅黑" font-weight="normal" font-style="normal" text-decoration="none" family="微软雅黑" text-anchor="middle" size="13">IssueIotDeviceControl</text></g></g><g id="ProcessOnG1109" transform="matrix(1.0,0.0,0.0,1.0,584.0,249.0)" opacity="1.0"><path id="ProcessOnPath1110" d="M0.0 0.0L147.0 0.0L163.0 16.0L163.0 21.0L0.0 21.0L0.0 0.0Z" stroke="none" stroke-width="0.0" stroke-dasharray="none" opacity="1.0" fill="#ffffaa"/><path id="ProcessOnPath1111" d="M147.0 0.0L147.0 16.0L163.0 16.0Z" stroke="none" stroke-width="0.0" stroke-dasharray="none" opacity="1.0" fill="#cdcd78"/><path id="ProcessOnPath1112" d="M0.0 0.0L147.0 0.0L163.0 16.0L163.0 21.0L0.0 21.0L0.0 0.0Z" stroke="none" stroke-width="0.0" stroke-dasharray="none" opacity="1.0" fill="none"/><g id="ProcessOnG1113" transform="matrix(1.0,0.0,0.0,1.0,10.0,2.375)"><text id="ProcessOnText1114" fill="#000000" font-size="13" x="0.0" y="13.325" font-family="微软雅黑" font-weight="normal" font-style="normal" text-decoration="none" family="微软雅黑" text-anchor="start" size="13">{"param_bool":false}</text></g></g><g id="ProcessOnG1115"><path id="ProcessOnPath1116" d="M506.0 358.0L658.5 358.0L658.5 358.0L795.7639320225002 358.0" stroke="#323232" stroke-width="2.0" stroke-dasharray="none" fill="none" marker-end="url(#ProcessOnMarker1117)"/><g id="ProcessOnG1119" transform="matrix(1.0,0.0,0.0,1.0,650.8819660112501,349.875)"><path id="ProcessOnPath1120" d="M0 0H83.0V16.25H0Z" fill="#fff" transform="matrix(1.0,0.0,0.0,1.0,-41.5,0.0)"/><text id="ProcessOnText1121" fill="#000000" font-size="13" x="0.0" y="13.325" font-family="微软雅黑" font-weight="normal" font-style="normal" text-decoration="none" family="微软雅黑" text-anchor="middle" size="13">HTTP 200 OK</text></g></g><g id="ProcessOnG1122" transform="matrix(1.0,0.0,0.0,1.0,506.0,302.0)" opacity="1.0"><path id="ProcessOnPath1123" d="M0.0 0.0L220.0 0.0L236.0 16.0L236.0 36.0L0.0 36.0L0.0 0.0Z" stroke="#323232" stroke-width="2.0" stroke-dasharray="none" opacity="1.0" fill="#ffffff"/><path id="ProcessOnPath1124" d="M220.0 0.0L220.0 16.0L236.0 16.0" stroke="#323232" stroke-width="2.0" stroke-dasharray="none" opacity="1.0" fill="#ffffff"/><path id="ProcessOnPath1125" d="M0.0 0.0L220.0 0.0L236.0 16.0L236.0 36.0L0.0 36.0L0.0 0.0Z" stroke="#323232" stroke-width="2.0" stroke-dasharray="none" opacity="1.0" fill="none"/><g id="ProcessOnG1126" transform="matrix(1.0,0.0,0.0,1.0,10.0,1.75)"><text id="ProcessOnText1127" fill="#000000" font-size="13" x="0.0" y="13.325" font-family="微软雅黑" font-weight="normal" font-style="normal" text-decoration="none" family="微软雅黑" text-anchor="start" size="13">{"reported":{"param_bool":true},</text><text id="ProcessOnText1128" fill="#000000" font-size="13" x="0.0" y="29.575" font-family="微软雅黑" font-weight="normal" font-style="normal" text-decoration="none" family="微软雅黑" text-anchor="start" size="13">"desired":{"param_bool":false}}</text></g></g><g id="ProcessOnG1129" transform="matrix(1.0,0.0,0.0,1.0,490.0,145.5)" opacity="1.0"><path id="ProcessOnPath1130" d="M0.0 0.0L215.0 0.0L231.0 16.0L231.0 40.5L0.0 40.5L0.0 0.0Z" stroke="#323232" stroke-width="2.0" stroke-dasharray="none" opacity="1.0" fill="#ffffff"/><path id="ProcessOnPath1131" d="M215.0 0.0L215.0 16.0L231.0 16.0" stroke="#323232" stroke-width="2.0" stroke-dasharray="none" opacity="1.0" fill="#ffffff"/><path id="ProcessOnPath1132" d="M0.0 0.0L215.0 0.0L231.0 16.0L231.0 40.5L0.0 40.5L0.0 0.0Z" stroke="#323232" stroke-width="2.0" stroke-dasharray="none" opacity="1.0" fill="none"/><g id="ProcessOnG1133" transform="matrix(1.0,0.0,0.0,1.0,10.0,4.0)"><text id="ProcessOnText1134" fill="#000000" font-size="13" x="0.0" y="13.325" font-family="微软雅黑" font-weight="normal" font-style="normal" text-decoration="none" family="微软雅黑" text-anchor="start" size="13">{"reported":{"param_bool":true},</text><text id="ProcessOnText1135" fill="#000000" font-size="13" x="0.0" y="29.575" font-family="微软雅黑" font-weight="normal" font-style="normal" text-decoration="none" family="微软雅黑" text-anchor="start" size="13">"desired":{}}</text></g></g><g id="ProcessOnG1136"><path id="ProcessOnPath1137" d="M550.0 184.0L550.0 242.0L550.0 242.0L550.0 284.7639320225002" stroke="#66b2ff" stroke-width="2.0" stroke-dasharray="2.0 3.0" fill="none" marker-end="url(#ProcessOnMarker1138)"/></g><g id="ProcessOnG1140" transform="matrix(1.0,0.0,0.0,1.0,71.0,437.0)" opacity="1.0"><path id="ProcessOnPath1141" d="M0.0 4.0Q0.0 0.0 4.0 0.0L26.0 0.0Q30.0 0.0 30.0 4.0L30.0 177.0Q30.0 181.0 26.0 181.0L4.0 181.0Q0.0 181.0 0.0 177.0L0.0 4.0Z" stroke="#323232" stroke-width="2.0" stroke-dasharray="none" opacity="1.0" fill="#ffffff"/></g><g id="ProcessOnG1142" transform="matrix(1.0,0.0,0.0,1.0,511.0,503.0)" opacity="1.0"><path id="ProcessOnPath1143" d="M0.0 0.0L220.0 0.0L236.0 16.0L236.0 36.0L0.0 36.0L0.0 0.0Z" stroke="#323232" stroke-width="2.0" stroke-dasharray="none" opacity="1.0" fill="#ffffff"/><path id="ProcessOnPath1144" d="M220.0 0.0L220.0 16.0L236.0 16.0" stroke="#323232" stroke-width="2.0" stroke-dasharray="none" opacity="1.0" fill="#ffffff"/><path id="ProcessOnPath1145" d="M0.0 0.0L220.0 0.0L236.0 16.0L236.0 36.0L0.0 36.0L0.0 0.0Z" stroke="#323232" stroke-width="2.0" stroke-dasharray="none" opacity="1.0" fill="none"/><g id="ProcessOnG1146" transform="matrix(1.0,0.0,0.0,1.0,10.0,1.75)"><text id="ProcessOnText1147" fill="#000000" font-size="13" x="0.0" y="13.325" font-family="微软雅黑" font-weight="normal" font-style="normal" text-decoration="none" family="微软雅黑" text-anchor="start" size="13">{"reported":{"param_bool":false},</text><text id="ProcessOnText1148" fill="#000000" font-size="13" x="0.0" y="29.575" font-family="微软雅黑" font-weight="normal" font-style="normal" text-decoration="none" family="微软雅黑" text-anchor="start" size="13">"desired":{}</text></g></g><g id="ProcessOnG1149" transform="matrix(1.0,0.0,0.0,1.0,74.0,451.0)" opacity="1.0"><path id="ProcessOnPath1150" d="M18.0 0.0Q9.0 0.0 9.0 9.0L9.0 59.5Q9.0 68.5 0.0 68.5Q9.0 68.5 9.0 77.5L9.0 128.0Q9.0 137.0 18.0 137.0" stroke="#323232" stroke-width="2.0" stroke-dasharray="none" opacity="1.0" fill="none"/><path id="ProcessOnPath1151" d="M409.0 137.0Q418.0 137.0 418.0 128.0L418.0 77.5Q418.0 68.5 427.0 68.5Q418.0 68.5 418.0 59.5L418.0 9.0Q418.0 0.0 409.0 0.0" stroke="#323232" stroke-width="2.0" stroke-dasharray="none" opacity="1.0" fill="none"/><path id="ProcessOnPath1152" d="M0.0 0.0L427.0 0.0L427.0 137.0L0.0 137.0Z" stroke="none" stroke-width="0.0" stroke-dasharray="none" opacity="1.0" fill="none"/></g><g id="ProcessOnG1153" transform="matrix(1.0,0.0,0.0,1.0,156.0,505.5)" opacity="1.0"><path id="ProcessOnPath1154" d="M0.0 0.0L250.0 0.0L250.0 44.0L0.0 44.0Z" stroke="none" stroke-width="0.0" stroke-dasharray="none" opacity="1.0" fill="none"/><g id="ProcessOnG1155" transform="matrix(1.0,0.0,0.0,1.0,0.0,13.875)"><text id="ProcessOnText1156" fill="#3333ff" font-size="13" x="0.0" y="13.325" font-family="微软雅黑" font-weight="normal" font-style="normal" text-decoration="none" family="微软雅黑" text-anchor="start" size="13">4. 后续处理及上报流程类似，参考上图。</text></g></g><g id="ProcessOnG1157"><path id="ProcessOnPath1158" d="M550.0 345.0L550.0 422.5L550.0 422.5L550.0 484.7639320225002" stroke="#66b2ff" stroke-width="2.0" stroke-dasharray="2.0 3.0" fill="none" marker-end="url(#ProcessOnMarker1159)"/></g><g id="ProcessOnG1161" transform="matrix(1.0,0.0,0.0,1.0,186.0,539.0)" opacity="1.0"><path id="ProcessOnPath1162" d="M0.0 0.0L162.0 0.0L162.0 37.0L0.0 37.0Z" stroke="none" stroke-width="0.0" stroke-dasharray="none" opacity="1.0" fill="none"/><g id="ProcessOnG1163" transform="matrix(1.0,0.0,0.0,1.0,0.0,2.25)"><text id="ProcessOnText1164" fill="#000000" font-size="13" x="0.0" y="13.325" font-family="微软雅黑" font-weight="normal" font-style="normal" text-decoration="none" family="微软雅黑" text-anchor="start" size="13">设备上报处理后状态，通知</text><text id="ProcessOnText1165" fill="#000000" font-size="13" x="0.0" y="29.575" font-family="微软雅黑" font-weight="normal" font-style="normal" text-decoration="none" family="微软雅黑" text-anchor="start" size="13">服务端清除已执行的指令。</text></g></g></g></g></svg>